<svg width="16" height="15" viewBox="0 0 16 15" fill="none" xmlns="http://www.w3.org/2000/svg">
<path fill-rule="evenodd" clip-rule="evenodd" d="M9.9434 0.767365C10.4693 0.535849 11.0329 0.416687 11.6022 0.416687C12.1714 0.416687 12.7351 0.535849 13.2609 0.767365C13.7867 0.998839 14.2644 1.33809 14.6668 1.76575C15.0693 2.19326 15.3888 2.70107 15.6067 3.25971C15.8246 3.81845 15.9367 4.41734 15.9367 5.02215C15.9367 5.62696 15.8246 6.22584 15.6067 6.78458C15.3888 7.34328 15.0695 7.85089 14.6669 8.27843C14.6669 8.27847 14.6669 8.27839 14.6669 8.27843L8.77357 14.5401C8.51322 14.8167 8.09111 14.8167 7.83076 14.5401L1.93743 8.27843C1.12461 7.41481 0.667969 6.24349 0.667969 5.02215C0.667969 3.8008 1.12461 2.62948 1.93743 1.76586C2.75024 0.902243 3.85266 0.417066 5.00216 0.417066C6.15166 0.417066 7.25408 0.902243 8.0669 1.76586L8.30216 2.01583L8.53732 1.76598C8.53735 1.76594 8.53728 1.76602 8.53732 1.76598C8.93971 1.33827 9.41757 0.99886 9.9434 0.767365ZM11.6022 1.83335C11.2081 1.83335 10.8179 1.91585 10.4538 2.07613C10.0897 2.23641 9.75894 2.47133 9.48035 2.76748L8.77357 3.51843C8.51322 3.79505 8.09111 3.79505 7.83076 3.51843L7.12409 2.7676C6.56132 2.16965 5.79804 1.83373 5.00216 1.83373C4.20629 1.83373 3.443 2.16965 2.88023 2.7676C2.31746 3.36554 2.0013 4.17653 2.0013 5.02215C2.0013 5.86777 2.31746 6.67875 2.88023 7.2767L8.30216 13.0375L13.7241 7.2767C14.0028 6.98069 14.224 6.62912 14.3749 6.2423C14.5257 5.85547 14.6034 5.44086 14.6034 5.02215C14.6034 4.60343 14.5257 4.18882 14.3749 3.802C14.224 3.41517 14.0029 3.06372 13.7242 2.76772C13.4456 2.47157 13.1146 2.23641 12.7505 2.07613C12.3865 1.91585 11.9962 1.83335 11.6022 1.83335Z" fill="white"/>
</svg>
