<svg width="55" height="40" viewBox="0 0 55 40" fill="none" xmlns="http://www.w3.org/2000/svg">
<rect width="55" height="40" rx="5" fill="#F7F8F9"/>
<path d="M31.9481 11.0919H22.0273V28.9199H31.9481V11.0919Z" fill="#FF5F00"/>
<path d="M22.6568 20.007C22.6552 18.29 23.0443 16.5952 23.7945 15.0509C24.5448 13.5065 25.6366 12.1531 26.9872 11.093C25.3147 9.77833 23.3059 8.96074 21.1906 8.7337C19.0753 8.50666 16.9388 8.87934 15.0253 9.80914C13.1118 10.7389 11.4985 12.1884 10.3698 13.9917C9.24113 15.795 8.64258 17.8796 8.64258 20.007C8.64258 22.1344 9.24113 24.219 10.3698 26.0223C11.4985 27.8257 13.1118 29.2751 15.0253 30.2049C16.9388 31.1347 19.0753 31.5073 21.1906 31.2803C23.3059 31.0533 25.3147 30.2357 26.9872 28.921C25.6366 27.8609 24.5448 26.5075 23.7946 24.9631C23.0443 23.4188 22.6552 21.724 22.6568 20.007Z" fill="#EB001B"/>
<path d="M45.3324 20.007C45.3325 22.1344 44.734 24.2189 43.6053 26.0223C42.4767 27.8256 40.8634 29.275 38.95 30.2048C37.0365 31.1347 34.9001 31.5073 32.7848 31.2803C30.6695 31.0533 28.6608 30.2357 26.9883 28.921C28.3377 27.8599 29.4287 26.5062 30.1788 24.9621C30.929 23.418 31.3187 21.7237 31.3187 20.007C31.3187 18.2903 30.929 16.596 30.1788 15.0519C29.4287 13.5078 28.3377 12.1541 26.9883 11.093C28.6608 9.77832 30.6695 8.96073 32.7848 8.7337C34.9001 8.50666 37.0365 8.87935 38.95 9.80916C40.8634 10.739 42.4767 12.1884 43.6053 13.9917C44.734 15.7951 45.3325 17.8796 45.3324 20.007Z" fill="#F79E1B"/>
<path d="M44.2491 27.0328V26.6679H44.3963V26.5935H44.0215V26.6679H44.1687V27.0328H44.2491ZM44.9768 27.0328V26.5928H44.8619L44.7298 26.8955L44.5976 26.5928H44.4826V27.0328H44.5637V26.7009L44.6877 26.9871H44.7718L44.8957 26.7002V27.0328H44.9768Z" fill="#F79E1B"/>
</svg>
