<svg width="17" height="15" viewBox="0 0 17 15" fill="none" xmlns="http://www.w3.org/2000/svg">
<path d="M8.49923 0C10.7916 0 12.885 0.624017 14.4034 1.63713C16.0103 2.70163 16.998 4.19927 16.998 5.88044C16.998 6.71002 16.7548 7.49554 16.3051 8.215C15.9292 8.81699 15.4206 9.36759 14.7941 9.84478L15.428 14.0073L11.6688 11.3424C11.2265 11.4672 10.7695 11.5627 10.2978 11.6287C9.71545 11.7168 9.1184 11.7609 8.5066 11.7609C6.21421 11.7609 4.12821 11.1369 2.60241 10.1238C0.99553 9.05926 0.0078125 7.56162 0.0078125 5.88778C0.0078125 4.21395 1.0029 2.71631 2.60241 1.65181C4.12084 0.6387 6.21421 0.0146827 8.5066 0.0146827L8.49923 0ZM13.6295 2.78238C12.3248 1.9161 10.5115 1.38018 8.49923 1.38018C6.48694 1.38018 4.67367 1.9161 3.369 2.78238C2.14541 3.58993 1.39356 4.6838 1.39356 5.86576C1.39356 7.04772 2.14541 8.14158 3.369 8.94913C4.6663 9.81542 6.48694 10.3513 8.49923 10.3513C9.04469 10.3513 9.58277 10.3146 10.084 10.2412C10.6073 10.1678 11.1086 10.0503 11.5803 9.90351L11.912 9.80073L13.5631 10.968L13.2904 9.18406L13.6589 8.93445C14.2855 8.50865 14.7941 8.01678 15.1332 7.46618C15.4427 6.96696 15.6123 6.4237 15.6123 5.85842C15.6123 4.67646 14.8604 3.58259 13.6368 2.7677L13.6295 2.78238Z" fill="white"/>
</svg>
