<svg width="55" height="40" viewBox="0 0 55 40" fill="none" xmlns="http://www.w3.org/2000/svg">
<rect width="55" height="40" rx="5" fill="#F7F8F9"/>
<path d="M23.3508 13.8943L21.3433 26.3868H24.552L26.5583 13.8943H23.3508ZM33.0296 18.9831C31.9083 18.4293 31.2209 18.0556 31.2209 17.4892C31.2346 16.9743 31.8022 16.4468 33.0696 16.4468C34.1121 16.4206 34.8783 16.6656 35.4596 16.9093L35.7508 17.0393L36.1871 14.4255C35.5533 14.1805 34.5483 13.9106 33.3071 13.9106C30.1383 13.9106 27.9071 15.5581 27.8932 17.9144C27.8671 19.6532 29.4907 20.6181 30.7058 21.1969C31.9471 21.7907 32.3696 22.1756 32.3696 22.7032C32.3559 23.5132 31.3659 23.8869 30.4422 23.8869C29.1622 23.8869 28.4747 23.6944 27.431 23.2431L27.0084 23.0506L26.5597 25.7669C27.3135 26.102 28.6996 26.3969 30.1385 26.4119C33.506 26.4119 35.6972 24.7894 35.7248 22.2782C35.7358 20.9006 34.8796 19.8455 33.0296 18.9831ZM44.4133 13.9329H41.9308C41.1658 13.9329 40.5845 14.153 40.2532 14.938L35.4869 26.3868H38.8544L39.7819 23.9081H43.5495L44.0307 26.3969H47.0007L44.4133 13.9329ZM40.7158 21.4067C40.7808 21.413 42.0084 17.3604 42.0084 17.3604L42.9859 21.4067C42.9859 21.4067 41.3496 21.4067 40.7158 21.4067ZM18.6621 13.8943L15.5183 22.3818L15.1758 20.708C14.5945 18.7767 12.7721 16.678 10.7383 15.6356L13.617 26.3744H17.0121L22.0572 13.8957H18.6621V13.8943Z" fill="#2394BC"/>
<path d="M14.1175 15.506C13.8725 14.5535 13.0912 13.911 12.0301 13.8973H7.05127L7 14.1285C10.8838 15.086 14.1437 18.0322 15.2013 20.8035L14.1175 15.506Z" fill="#EFC75E"/>
</svg>
